<svg width="32" height="24" viewBox="0 0 32 24" fill="none" xmlns="http://www.w3.org/2000/svg">
<path fill-rule="evenodd" clip-rule="evenodd" d="M0 0C11.3799 0 11.3799 7.47628e-06 13.6133 2.16138C14.2567 2.82813 14.6981 3.58267 15.0799 4.42549L15.1576 4.58997C15.3798 5.09651 15.4775 5.65373 15.5804 6.19569C15.5971 6.28028 15.5971 6.2803 15.6142 6.36659C15.65 6.62526 15.6544 6.87819 15.6557 7.13907C15.6561 7.19336 15.6565 7.24767 15.6568 7.30361C15.6574 7.4186 15.6578 7.53362 15.658 7.64861C15.6586 7.82049 15.6606 7.99233 15.6626 8.1642C15.6761 10.4389 14.9254 12.5422 13.3435 14.1734C11.9125 15.6 10.1282 16.2041 8.14042 16.199C8.04642 16.1983 7.95241 16.1977 7.85842 16.197C7.75894 16.1968 7.65946 16.1966 7.55998 16.1965C7.3021 16.196 7.0442 16.1948 6.78632 16.1934C6.52159 16.1921 6.25686 16.1915 5.99213 16.1908C5.47562 16.1895 4.95912 16.1873 4.44262 16.1847C4.44289 16.2409 4.44319 16.2972 4.44347 16.3552C4.44599 16.8881 4.44787 17.421 4.44909 17.9539C4.44974 18.2278 4.45066 18.5017 4.45209 18.7756C4.45346 19.0404 4.45415 19.3052 4.45447 19.57C4.4547 19.6705 4.4552 19.7711 4.45588 19.8716C4.46351 21.047 4.30117 22.0001 3.46102 22.8748C2.39284 23.892 1.4811 23.8977 0 23.8977V0ZM7.89031 4.34227C7.80249 4.34324 7.71465 4.34389 7.62683 4.34418C7.49929 4.34434 7.49925 4.34438 7.22805 4.34523C7.00169 4.34701 6.78195 4.34869 6.56225 4.35042L4.44262 4.36227V11.8224L6.617 11.8382C6.93723 11.8415 7.25751 11.845 7.57776 11.8463C7.6652 11.8465 7.75264 11.8467 7.84008 11.8471C8.26858 11.8533 8.69022 11.8696 9.10974 11.7681C9.94762 11.4911 10.546 11.0468 10.9646 10.2619C10.9876 10.2174 11.0099 10.1743 11.0322 10.1312C11.353 9.52626 11.4033 8.8934 11.4022 8.21544L11.3998 8.00145C11.3993 6.93868 11.185 6.05103 10.4552 5.2412C9.71726 4.54463 8.87283 4.33196 7.89031 4.34227Z" fill="black"/>
<path fill-rule="evenodd" clip-rule="evenodd" d="M24.6767 0.0634718C26.7462 0.0482746 28.5464 0.724445 30.0502 2.16805C31.4247 3.6137 32.0123 5.48626 31.9988 7.46111C31.9978 7.63586 31.9988 7.81053 32 7.98528C32.0023 9.85791 31.5399 11.5902 30.3475 13.054L30.2387 13.193C29.5251 14.0689 28.5059 14.6786 27.4691 15.0771L27.289 15.1497C26.3496 15.5008 25.3503 15.5481 24.3594 15.5381C24.253 15.5378 24.1467 15.5375 24.0404 15.5373C23.765 15.5366 23.4897 15.5348 23.2143 15.5326C22.9315 15.5307 22.6487 15.5298 22.366 15.5289C21.8144 15.5269 21.2629 15.5236 20.7114 15.5196C20.7119 15.5839 20.7125 15.6482 20.7131 15.7145C20.7182 16.3245 20.7219 16.9345 20.7243 17.5445C20.7256 17.858 20.7274 18.1715 20.7302 18.485C20.733 18.7883 20.7345 19.0917 20.7351 19.395C20.7356 19.5099 20.7364 19.6248 20.7378 19.7398C20.7516 20.9518 20.5788 22.0575 19.7219 22.9758C18.9323 23.728 17.9853 24.0177 16.9218 23.9992L16.7306 23.9974C16.5766 23.996 16.4227 23.9939 16.2687 23.9913C16.257 22.481 16.2482 20.9707 16.2428 19.4604C16.2403 18.7591 16.2367 18.0577 16.231 17.3564C16.226 16.7445 16.2227 16.1326 16.2216 15.5207C16.221 15.1972 16.2195 14.8737 16.2158 14.5502C16.1885 12.0516 16.1885 12.0516 16.7108 11.0352C16.8175 10.7967 16.8685 10.5432 16.9218 10.288C16.9317 10.2412 16.9415 10.1943 16.9517 10.146C17.0525 9.6495 17.0921 9.15043 17.0993 8.64429C17.1001 8.59323 17.1009 8.54217 17.1017 8.48957C17.1346 5.84995 16.5586 3.59575 14.7083 1.65438C14.1446 1.10713 13.5276 0.709553 12.8444 0.336855C12.6396 0.220049 12.6396 0.220041 12.5144 0.0936007C14.2327 0.0876799 15.951 0.083241 17.6693 0.0805119C18.4672 0.0792108 19.2651 0.0774247 20.063 0.0745232C20.7589 0.071994 21.4548 0.0703929 22.1506 0.069831C22.5187 0.0695027 22.8868 0.0687178 23.2549 0.0668675C23.6022 0.0651361 23.9495 0.064638 24.2968 0.0650153C24.4234 0.0649463 24.5501 0.0644508 24.6767 0.0634718ZM24.2986 4.4292C24.2073 4.4305 24.1159 4.43135 24.0246 4.43173C23.8916 4.43195 23.8916 4.43195 23.609 4.43309L22.917 4.44007L20.7114 4.45587V11.1573L22.9366 11.1652C23.2648 11.1669 23.593 11.1687 23.9212 11.1693C24.0102 11.1694 24.0992 11.1695 24.1883 11.1697C24.3314 11.1707 24.4746 11.1717 24.6178 11.1718C24.6638 11.1718 24.7085 11.1717 24.7532 11.1717C25.5454 11.1745 26.2751 10.8345 26.8459 10.2838C27.4013 9.65896 27.6954 8.84425 27.6905 8.01183L27.6842 7.7829C27.6797 6.8321 27.4999 6.05602 26.82 5.34492C26.0663 4.64382 25.3108 4.41556 24.2986 4.4292Z" fill="black"/>
<path d="M15.4553 13.623C15.4966 13.623 15.5379 13.623 15.5805 13.623C15.5805 17.0445 15.5805 20.4661 15.5805 23.9913C14.127 23.9913 13.1894 23.9699 12.139 22.9797C11.4643 22.2611 11.1289 21.3845 11.1307 20.3969C11.1307 20.3562 11.1307 20.3154 11.1307 20.2734C11.1308 20.1404 11.1312 20.0073 11.1317 19.8742C11.1318 19.7813 11.1319 19.6884 11.132 19.5955C11.1322 19.3522 11.1328 19.1089 11.1335 18.8656C11.1342 18.6168 11.1345 18.368 11.1348 18.1192C11.1355 17.632 11.1365 17.1448 11.1378 16.6576C11.2139 16.6326 11.2899 16.6076 11.3683 16.5819C11.4697 16.5482 11.5712 16.5145 11.6726 16.4808C11.7475 16.4562 11.7475 16.4562 11.8239 16.4312C13.2791 15.9461 14.4687 14.9688 15.3927 13.7494C15.4134 13.7077 15.434 13.666 15.4553 13.623Z" fill="black"/>
</svg>
